<?xml version='1.0' encoding='utf-8'?>
<svg xmlns="http://www.w3.org/2000/svg" width="768" height="1344" viewBox="30 80 710 1090"><path fill="#c9a227" d="M214.746 362.886C214.652 351.57 276.503 271.679 283.155 270.431C283.967 271.309 284.89 272.076 285.157 273.191C284.773 280.219 279.195 306.791 277.529 314.333C276.581 320.428 273.749 331.912 273.625 337.514C272.636 382.115 271.703 426.818 274.038 471.397C274.214 474.708 274.414 477.93 274.414 481.249C274.998 487.673 275.291 496.941 276.268 502.813C278.5 516.219 286.701 531.159 297.126 539.888C305.948 547.324 315.975 553.2 326.774 557.263C334.067 559.56 338.605 560.97 346.288 561.682C349.965 559.636 350.853 558.621 353.543 555.412L354.26 557.469L353.433 559.613C355.348 561.98 354.505 561.278 357.724 562.138C360.372 564.701 357.516 562.237 358.558 565.209C362.308 566.112 359.627 563.289 364.919 564.67C366.955 562.762 371.256 549.692 370.957 548.432C369.346 549.248 370.142 549.161 368.542 548.965C368.902 545.338 371.411 546.13 371.614 543.783C372.207 536.92 372.761 529.151 374.528 522.462L374.663 521.966C374.531 524.352 374.059 525.645 374.992 527.548C375.922 527.63 376.498 527.729 377.426 527.616L378.296 528.416C379.565 530.275 389.263 545.663 388.981 545.447C390.183 541.282 387.717 529.268 389.11 524.945C390.47 520.719 390.394 517.096 391.675 513.308C392.681 510.338 396.829 504.852 397.519 501.842C398.317 500.91 399.118 499.849 399.881 498.875L402.373 498.337C391.405 517.344 383.242 540.704 401.259 559.015C402.245 559.317 406.163 560.439 406.813 560.858L412.19 561.26C422.204 559.449 429.899 556.112 439.149 552.02C445.096 548.902 451.06 544.717 456.585 540.917L459.075 541.932C459.127 543.425 459.375 542.826 458.474 543.844L459.901 544.08C460.427 541.03 462.293 540.679 464.725 539.846C462.142 544.741 465.299 542.472 463.175 545.036L460.942 545.13C459.73 546.736 459.721 547.192 459.159 549.18C461.776 549.117 461.413 548.731 463.315 549.941C463.567 550.736 463.962 551.851 464.142 552.63C463.594 553.29 461.9 555.24 461.556 555.857L462.556 556.89C461.44 559.207 450.959 565.284 447.94 567.633C451.647 567.265 454.544 566.34 458.096 566.802C457.543 568.314 453.282 569.804 451.685 570.109L451.212 570.483C448.478 572.608 447.147 572.481 443.622 572.231C448.403 575.858 447.636 571.464 451.742 573.1C452.307 573.925 453.272 575.241 453.687 576.078C459.595 573.704 462.602 570.455 467.287 568.535C468 566.356 476.897 562.147 479.31 560.694C478.293 562.406 477.865 563.108 476.572 564.613C477.561 564.695 478.101 564.736 479.111 564.715C470.21 571.433 460.486 576.985 450.176 581.236C434.021 587.915 401.197 593.41 398.626 614.836C397.765 622.831 398.293 628.663 397.811 636.152C395.359 674.315 396.421 712.916 397.237 751.148C398.777 810.028 398.628 868.94 396.787 927.812C396.263 949.317 397.173 970.977 395.379 992.428C394.318 1005.11 392.559 1036.53 382.709 1044.37L382.263 1044.72C379.366 1045.6 380.604 1045.51 377.47 1044.85C371.984 1038.37 370.982 1017.32 370.097 1008.1C368.427 993.449 368.086 976.185 367.472 961.318C366.453 938.775 365.579 916.226 364.849 893.672C363.912 863.424 361.482 823.974 362.354 794.444C364.687 788.915 361.947 769.065 363.814 760.958L364.566 761.084C364.361 766.246 364.347 770.62 364.464 775.786C364.949 770.747 364.292 760.582 365.068 757.445C365.478 746.169 364.968 731.843 364.893 720.332C365.062 707.827 364.289 695.388 364.327 682.806C365.284 679.022 366.886 673.685 366.103 669.996C365.923 669.147 366.349 668.892 366.95 667.868C367.048 666.461 367.224 666.136 367.693 664.854C366.034 656.657 368.67 654.176 366.28 643.891L367.113 642.727C366.277 638.348 365.724 634.304 361.354 632.555C360.679 632.197 359.451 629.386 358.975 628.457C358.27 626.363 358.076 616.881 356.582 612.878C350.915 597.687 339.665 596.457 325.89 592.46C318.027 590.178 312.243 588.248 305.1 584.659L304.724 584.507C282.408 575.293 260.617 560.487 250.986 537.587C240.098 515.182 244.175 463.208 244.089 437.982C243.995 410.668 246.392 376.345 242.966 349.567C240.384 350.23 237.636 351.47 235.152 352.504L229.613 355.852C225.986 358.915 219.258 364.746 214.688 366.029L213.342 365.697C213.455 363.973 213.43 364.504 214.746 362.886Z" /><path fill="#c9a227" d="M467.287 568.535C468 566.356 476.897 562.147 479.31 560.694C478.293 562.406 477.865 563.108 476.572 564.613C477.561 564.695 478.101 564.736 479.111 564.715C470.21 571.433 460.486 576.985 450.176 581.236C434.021 587.915 401.197 593.41 398.626 614.836C397.765 622.831 398.293 628.663 397.811 636.152C395.359 674.315 396.421 712.916 397.237 751.148C398.777 810.028 398.628 868.94 396.787 927.812C396.263 949.317 397.173 970.977 395.379 992.428C394.318 1005.11 392.559 1036.53 382.709 1044.37L382.263 1044.72C379.366 1045.6 380.604 1045.51 377.47 1044.85C371.984 1038.37 370.982 1017.32 370.097 1008.1C368.427 993.449 368.086 976.185 367.472 961.318C366.453 938.775 365.579 916.226 364.849 893.672C363.912 863.424 361.482 823.974 362.354 794.444C364.687 788.915 361.947 769.065 363.814 760.958L364.566 761.084C364.361 766.246 364.347 770.62 364.464 775.786C364.949 770.747 364.292 760.582 365.068 757.445C365.478 746.169 364.968 731.843 364.893 720.332C365.062 707.827 364.289 695.388 364.327 682.806C365.284 679.022 366.886 673.685 366.103 669.996C365.923 669.147 366.349 668.892 366.95 667.868C367.048 666.461 367.224 666.136 367.693 664.854C366.034 656.657 368.67 654.176 366.28 643.891L367.113 642.727C366.277 638.348 365.724 634.304 361.354 632.555C360.679 632.197 359.451 629.386 358.975 628.457C358.27 626.363 358.076 616.881 356.582 612.878C350.915 597.687 339.665 596.457 325.89 592.46C318.027 590.178 312.243 588.248 305.1 584.659C306.555 584.75 336.36 593.785 339.975 595.045C344.917 597.243 348.867 599.201 353.124 602.724C354.529 603.887 356.962 606.65 358.25 606.819C357.258 602.75 355.519 601.028 354.825 597.196L355.466 597.138C356.654 599.378 357.044 602.863 358.12 603.684L358.896 603.065C359.235 597.92 356.397 596.746 356.372 592.891C358.84 594.903 359.499 597.448 361.313 599.749C363.24 602.193 361.616 610.475 362.064 611.728L363.166 611.552C363.249 614.176 362.91 614.866 364.464 616.617L364.691 615.965C365.411 612.659 364.474 611.436 366.413 609.817L367.216 611.224C369.864 609.687 368.731 605.813 372.683 603.934L373.599 606.836L373.69 608.148C378.66 608.455 378.314 608.865 380.235 604.408C380.044 603.3 379.574 601.716 379.279 600.593C380.903 600.373 380.168 600.679 381.476 599.48L383.429 598.918L384.301 599.585L383.855 600.996L383.674 600.839C382.096 604.566 380.907 606.042 381.271 609.94C380.491 614.143 379.988 614.613 382.718 618.085C381.342 622.747 380.113 634.436 379.909 639.484L382.529 641.556C384.983 638.53 383.776 639.324 387.289 638.063C387.762 625.532 387.436 617.836 394.692 607.083C398.544 598.138 401.863 601.12 406.496 598.647C409.096 591.648 397.686 585.193 403.978 579.599C404.955 581.896 406.454 587.501 407.599 588.161C411.836 576.858 413.017 582.728 423.32 577.915C423.907 577.848 423.634 577.94 424.114 577.664C424.989 577.16 449.952 574.11 450.559 574.238C450.727 574.273 452.503 575.76 453.687 576.078C459.595 573.704 462.602 570.455 467.287 568.535Z" /><path fill="#c9a227" d="M364.327 682.806C365.284 679.022 366.886 673.685 366.103 669.996C365.923 669.147 366.349 668.892 366.95 667.868C369.886 674.261 370.933 685.421 368.92 692.05C363.418 699.508 372.898 719.731 369.138 725.893L369.24 726.208C370.018 728.542 371.274 729.948 371.074 731.91C370.227 732.441 369.988 732.45 369.445 733.192C372.039 735.115 373.471 743.84 372.816 746.795C372.165 747.594 369.428 750.446 369.219 750.733L371.741 751.256C372.158 754.644 368.306 754.258 372.328 756.174C371.827 757.31 371.929 757.401 370.886 758.011C370.019 760.439 369.465 761.377 370.234 763.9L371.773 765.918C371.603 766.929 371.726 767.405 371.138 767.959L372.843 774.779L372.362 775.484C370.991 775.681 371.464 775.338 370.712 776.207C371.962 776.928 373.668 777.786 374.646 778.785C373.959 783.71 368.071 787.331 370.847 791.983C373.824 792.408 373.111 791.861 374.898 793.754C376.721 799.102 375.556 814.985 376.306 822.512C377.475 861.316 377.005 899.515 377.878 938.269C378.018 944.518 377.297 970.245 378.331 973.731C378.578 971.242 378.549 970.627 380.005 968.467L380.117 973.589C379.845 984.368 379.753 996.216 380.297 1006.97C380.809 1017.1 382.132 1023.4 381.503 1033.84C380.866 1035.62 381.736 1040.88 382.886 1042.54L382.263 1044.72C379.366 1045.6 380.604 1045.51 377.47 1044.85C371.984 1038.37 370.982 1017.32 370.097 1008.1C368.427 993.449 368.086 976.185 367.472 961.318C366.453 938.775 365.579 916.226 364.849 893.672C363.912 863.424 361.482 823.974 362.354 794.444C364.687 788.915 361.947 769.065 363.814 760.958L364.566 761.084C364.361 766.246 364.347 770.62 364.464 775.786C364.949 770.747 364.292 760.582 365.068 757.445C365.478 746.169 364.968 731.843 364.893 720.332C365.062 707.827 364.289 695.388 364.327 682.806Z" /><path fill="#c9a227" d="M365.068 757.445C365.646 760.126 365.875 779.286 365.962 783.181L367.327 846.756L371.442 967.54C371.866 979.894 373.421 996.962 373.414 1008.46L370.097 1008.1C368.427 993.449 368.086 976.185 367.472 961.318C366.453 938.775 365.579 916.226 364.849 893.672C363.912 863.424 361.482 823.974 362.354 794.444C364.687 788.915 361.947 769.065 363.814 760.958L364.566 761.084C364.361 766.246 364.347 770.62 364.464 775.786C364.949 770.747 364.292 760.582 365.068 757.445Z" /><path fill="#c9a227" d="M378.331 973.731C378.578 971.242 378.549 970.627 380.005 968.467L380.117 973.589C379.845 984.368 379.753 996.216 380.297 1006.97C380.809 1017.1 382.132 1023.4 381.503 1033.84C380.866 1035.62 381.736 1040.88 382.886 1042.54L382.263 1044.72C379.366 1045.6 380.604 1045.51 377.47 1044.85C371.984 1038.37 370.982 1017.32 370.097 1008.1L373.414 1008.46C373.582 1010.26 374.232 1018.39 374.541 1019.64C376.063 1019.55 376.384 1019.61 377.769 1020.25C379.189 1012.26 379.508 982.013 378.331 973.731Z" /><path fill="#c9a227" d="M370.097 1008.1L373.414 1008.46C373.582 1010.26 374.232 1018.39 374.541 1019.64C375.183 1027.94 375.806 1036.71 377.47 1044.85C371.984 1038.37 370.982 1017.32 370.097 1008.1Z" /><path fill="#c9a227" d="M369.445 733.192C372.039 735.115 373.471 743.84 372.816 746.795C368.135 743.838 368.805 740.259 368.764 735.254L369.692 734.697L369.445 733.192Z" /><path fill="#c9a227" d="M369.445 733.192C368.539 732.948 368.521 732.82 367.694 732.31C367.022 729.331 367.314 728.826 369.138 725.893L369.24 726.208C370.018 728.542 371.274 729.948 371.074 731.91C370.227 732.441 369.988 732.45 369.445 733.192Z" /><path fill="#c9a227" d="M398.626 614.836C397.765 622.831 398.293 628.663 397.811 636.152C395.359 674.315 396.421 712.916 397.237 751.148C398.777 810.028 398.628 868.94 396.787 927.812C396.263 949.317 397.173 970.977 395.379 992.428C394.318 1005.11 392.559 1036.53 382.709 1044.37L382.263 1044.72L382.886 1042.54C381.736 1040.88 380.866 1035.62 381.503 1033.84C388.129 1026.94 388.925 910.997 389.288 894.814C389.413 889.246 389.266 877.334 389.834 870.761C389.665 863.585 389.563 840.137 390.539 833.889L390.534 795.145C390.872 797.047 391.229 799.982 392.486 801.416C392.836 764.622 391.743 727.688 392.506 690.998C392.915 671.297 392.459 632.656 398.626 614.836Z" /><path fill="#c9a227" d="M389.834 870.761C391.141 883.412 389.008 893.965 391.308 907.634C392.508 942.27 389.376 980.615 387.019 1015.25C386.49 1023.02 385.09 1035.28 382.886 1042.54C381.736 1040.88 380.866 1035.62 381.503 1033.84C388.129 1026.94 388.925 910.997 389.288 894.814C389.413 889.246 389.266 877.334 389.834 870.761Z" /><path fill="#c9a227" d="M390.539 833.889C393.821 844.184 390.205 870.922 391.97 882.87C392.16 887.859 392.05 902.792 391.308 907.634C389.008 893.965 391.141 883.412 389.834 870.761C389.665 863.585 389.563 840.137 390.539 833.889Z" /><path fill="#c9a227" d="M390.534 795.145C390.872 797.047 391.229 799.982 392.486 801.416C393.21 817.152 392.668 834.769 392.584 850.672C392.537 859.409 392.769 874.777 391.97 882.87C390.205 870.922 393.821 844.184 390.539 833.889L390.534 795.145Z" /><path fill="#c9a227" d="M305.1 584.659C306.555 584.75 336.36 593.785 339.975 595.045C344.917 597.243 348.867 599.201 353.124 602.724C354.529 603.887 356.962 606.65 358.25 606.819C357.258 602.75 355.519 601.028 354.825 597.196L355.466 597.138C356.654 599.378 357.044 602.863 358.12 603.684L358.896 603.065C359.235 597.92 356.397 596.746 356.372 592.891C358.84 594.903 359.499 597.448 361.313 599.749C363.24 602.193 361.616 610.475 362.064 611.728L363.166 611.552C363.249 614.176 362.91 614.866 364.464 616.617L364.691 615.965C365.411 612.659 364.474 611.436 366.413 609.817L367.216 611.224C369.864 609.687 368.731 605.813 372.683 603.934L373.599 606.836L373.69 608.148C378.66 608.455 378.314 608.865 380.235 604.408C380.044 603.3 379.574 601.716 379.279 600.593C380.903 600.373 380.168 600.679 381.476 599.48L383.429 598.918L384.301 599.585L383.855 600.996L383.674 600.839C382.096 604.566 380.907 606.042 381.271 609.94C380.491 614.143 379.988 614.613 382.718 618.085C381.342 622.747 380.113 634.436 379.909 639.484L382.529 641.556C380.618 645.542 381.14 658.391 383.175 662.077L382.582 662.92C382.477 665.002 382.56 665.258 383.339 667.199L384.936 667.053L382.847 669.172L383.165 669.995L384.604 669.947C385.208 671.509 385.255 671.432 384.972 673.047C384.288 673.538 383.009 674.214 382.95 674.802C382.545 678.873 382.625 684.585 382.844 688.665L383.859 687.891L383.666 688.132L384.465 686.444C386.006 688.487 383.444 690.111 382.462 691.762C382.273 692.08 383.257 696.392 383.521 696.984C383.467 699.503 381.134 701.358 381.287 703.581L382.77 704.048C383.3 717.577 380.647 732.206 383.154 745.886C383.629 748.477 383.556 751.645 384.198 754.08L381.636 752.984C380.236 733.451 379.812 701.005 379.97 680.87L379.485 680.559L378.443 683.755C377.592 687.477 378.216 693.053 378.075 696.975C377.656 708.65 379.643 727.93 378.03 738.889C374.654 749.404 378.402 760.915 376.746 769.991C375.314 773.937 376.355 776.574 374.646 778.785C373.668 777.786 371.962 776.928 370.712 776.207C371.464 775.338 370.991 775.681 372.362 775.484L372.843 774.779L371.138 767.959C371.726 767.405 371.603 766.929 371.773 765.918L370.234 763.9C369.465 761.377 370.019 760.439 370.886 758.011C371.929 757.401 371.827 757.31 372.328 756.174C368.306 754.258 372.158 754.644 371.741 751.256L369.219 750.733C369.428 750.446 372.165 747.594 372.816 746.795C373.471 743.84 372.039 735.115 369.445 733.192C369.988 732.45 370.227 732.441 371.074 731.91C371.274 729.948 370.018 728.542 369.24 726.208L369.138 725.893C372.898 719.731 363.418 699.508 368.92 692.05C370.933 685.421 369.886 674.261 366.95 667.868C367.048 666.461 367.224 666.136 367.693 664.854C366.034 656.657 368.67 654.176 366.28 643.891L367.113 642.727C366.277 638.348 365.724 634.304 361.354 632.555C360.679 632.197 359.451 629.386 358.975 628.457C358.27 626.363 358.076 616.881 356.582 612.878C350.915 597.687 339.665 596.457 325.89 592.46C318.027 590.178 312.243 588.248 305.1 584.659Z" /><path fill="#c9a227" d="M375.047 665.076C376.123 649.886 375.321 635.566 375.007 620.382C374.923 616.304 375.557 610.274 379.92 608.565C380.875 611.283 377.835 619.346 377.931 623.036C378.301 637.258 377.17 651.124 377.866 665.427C378.174 671.736 377.382 677.241 378.443 683.755C377.592 687.477 378.216 693.053 378.075 696.975C377.656 708.65 379.643 727.93 378.03 738.889C374.654 749.404 378.402 760.915 376.746 769.991C375.314 773.937 376.355 776.574 374.646 778.785C373.668 777.786 371.962 776.928 370.712 776.207C371.464 775.338 370.991 775.681 372.362 775.484L372.843 774.779L371.138 767.959C371.726 767.405 371.603 766.929 371.773 765.918L370.234 763.9C369.465 761.377 370.019 760.439 370.886 758.011C371.929 757.401 371.827 757.31 372.328 756.174C368.306 754.258 372.158 754.644 371.741 751.256L369.219 750.733C369.428 750.446 372.165 747.594 372.816 746.795C373.471 743.84 372.039 735.115 369.445 733.192C369.988 732.45 370.227 732.441 371.074 731.91C371.274 729.948 370.018 728.542 369.24 726.208L369.138 725.893C372.898 719.731 363.418 699.508 368.92 692.05C370.933 685.421 369.886 674.261 366.95 667.868C367.048 666.461 367.224 666.136 367.693 664.854L368.921 664.757C368.895 666.994 371.015 668.098 372.746 669.22L374.264 669.022C374.967 667.301 374.914 666.968 375.047 665.076Z" /><path fill="#c9a227" d="M367.693 664.854L368.921 664.757C368.895 666.994 371.015 668.098 372.746 669.22L374.264 669.022C374.967 667.301 374.914 666.968 375.047 665.076C375.312 669.17 376.149 672.94 375.221 676.732L375.499 677.669C375.534 679.331 375.702 683.294 375.472 684.715C375.473 685.326 375.551 689.593 375.414 689.786C375.986 695.997 376.065 727.538 373.809 731.316L373.093 731.096C372.579 729.593 372.111 707.972 372.197 705.245C371.38 705.209 370.565 705.154 369.751 705.08L369.78 704.242L371.767 703.255C367.796 696.334 371.911 698.609 371.666 693.4C370.894 692.465 370.101 692.392 368.92 692.05C370.933 685.421 369.886 674.261 366.95 667.868C367.048 666.461 367.224 666.136 367.693 664.854Z" /><path fill="#c9a227" d="M375.414 689.786C375.081 690.783 374.73 691.516 374.295 692.459L373.193 691.764C372.141 688.703 372.284 686.445 372.963 683.324L374.072 683.294L375.472 684.715C375.473 685.326 375.551 689.593 375.414 689.786Z" /><path fill="#c9a227" d="M375.499 677.669C375.288 679.703 375.404 680.118 374.18 681.624L373.448 681.125C372.803 677.31 372.66 675.693 372.643 671.825L374.297 671.41C375.273 672.299 375.092 675.011 375.221 676.732L375.499 677.669Z" /><path fill="#c9a227" d="M370.234 763.9C369.465 761.377 370.019 760.439 370.886 758.011C372.317 759.455 373.075 759.967 373.274 762.035L372.349 763.595L370.234 763.9Z" /><path fill="#c9a227" d="M364.464 616.617C363.013 621.064 364.785 626.004 362.709 628.17L361.756 627.957C360.383 625.235 361.037 620.735 360.283 617.681C359.531 614.633 357.509 613.59 357.902 610.73L359.205 610.133C360.281 610.686 361.031 611.101 362.064 611.728L363.166 611.552C363.249 614.176 362.91 614.866 364.464 616.617Z" /><path fill="#c9a227" d="M364.691 615.965C365.411 612.659 364.474 611.436 366.413 609.817L367.216 611.224C369.864 609.687 368.731 605.813 372.683 603.934L373.599 606.836L373.69 608.148L374.095 609.672L371.996 610.083C370.277 612.819 368.176 619.009 367.554 619.694C366.521 618.421 365.649 617.296 364.691 615.965Z" /><path fill="#c9a227" d="M378.443 683.755L379.485 680.559L379.97 680.87C379.812 701.005 380.236 733.451 381.636 752.984C383.566 786.142 381.506 818.941 382.243 852.071C382.425 860.257 381.737 880.685 382.703 887.269C382.822 891.61 382.571 895.981 382.606 900.336C382.829 927.835 383.597 955.149 381.826 982.635C381.578 986.482 381.449 990.521 381.458 994.382C379.593 992.1 381.742 979.915 380.117 973.589L380.005 968.467C378.549 970.627 378.578 971.242 378.331 973.731C377.297 970.245 378.018 944.518 377.878 938.269C377.005 899.515 377.475 861.316 376.306 822.512C375.556 814.985 376.721 799.102 374.898 793.754C373.111 791.861 373.824 792.408 370.847 791.983C368.071 787.331 373.959 783.71 374.646 778.785C376.355 776.574 375.314 773.937 376.746 769.991C378.402 760.915 374.654 749.404 378.03 738.889C379.643 727.93 377.656 708.65 378.075 696.975C378.216 693.053 377.592 687.477 378.443 683.755Z" /><path fill="#c9a227" d="M378.03 738.889C377.821 750.493 377.968 762.244 378.207 773.856C379.055 815.169 378.326 856.575 379.13 897.874L379.762 944.26C379.834 947.86 380.599 965.902 380.005 968.467C378.549 970.627 378.578 971.242 378.331 973.731C377.297 970.245 378.018 944.518 377.878 938.269C377.005 899.515 377.475 861.316 376.306 822.512C375.556 814.985 376.721 799.102 374.898 793.754C373.111 791.861 373.824 792.408 370.847 791.983C368.071 787.331 373.959 783.71 374.646 778.785C376.355 776.574 375.314 773.937 376.746 769.991C378.402 760.915 374.654 749.404 378.03 738.889Z" /><path fill="#c9a227" d="M374.646 778.785C376.355 776.574 375.314 773.937 376.746 769.991C377.306 776.518 377.738 817.763 376.306 822.512C375.556 814.985 376.721 799.102 374.898 793.754C373.111 791.861 373.824 792.408 370.847 791.983C368.071 787.331 373.959 783.71 374.646 778.785Z" /><path fill="#c9a227" d="M467.287 568.535C468 566.356 476.897 562.147 479.31 560.694C478.293 562.406 477.865 563.108 476.572 564.613C477.561 564.695 478.101 564.736 479.111 564.715C470.21 571.433 460.486 576.985 450.176 581.236C434.021 587.915 401.197 593.41 398.626 614.836C392.459 632.656 392.915 671.297 392.506 690.998C391.743 727.688 392.836 764.622 392.486 801.416C391.229 799.982 390.872 797.047 390.534 795.145C389.617 791.711 389.948 776.784 389.885 772.008C389.335 730.106 390.168 688.04 391.558 646.161C391.735 640.829 396.408 613.846 395.315 611.596L394.004 612.115C394.225 608.901 396.438 610.885 397.142 606.802L396.493 606.194L394.692 607.083C398.544 598.138 401.863 601.12 406.496 598.647C409.096 591.648 397.686 585.193 403.978 579.599C404.955 581.896 406.454 587.501 407.599 588.161C411.836 576.858 413.017 582.728 423.32 577.915C423.907 577.848 423.634 577.94 424.114 577.664C424.989 577.16 449.952 574.11 450.559 574.238C450.727 574.273 452.503 575.76 453.687 576.078C459.595 573.704 462.602 570.455 467.287 568.535Z" /><path fill="#c9a227" d="M453.687 576.078C459.595 573.704 462.602 570.455 467.287 568.535C459.753 575.59 422.157 591.04 413.229 591.847C410.454 590.376 409.18 587.646 410.606 584.668C414.375 580.997 420.68 582.679 423.32 577.915C423.907 577.848 423.634 577.94 424.114 577.664C424.989 577.16 449.952 574.11 450.559 574.238C450.727 574.273 452.503 575.76 453.687 576.078Z" /><path fill="#c9a227" d="M381.636 752.984L384.198 754.08C385.453 769.721 384.559 794.409 384.174 810.093L384.121 810.032L384.27 818.985L384.164 818.675C384.4 824.433 384.649 830.079 384.318 835.84C384.128 839.142 381.499 844.156 383.697 846.718C384.499 845.205 384.15 843.944 384.113 842.011C384.469 842.578 383.172 883.554 382.703 887.269C381.737 880.685 382.425 860.257 382.243 852.071C381.506 818.941 383.566 786.142 381.636 752.984Z" /><path fill="#c9a227" d="M382.529 641.556C384.983 638.53 383.776 639.324 387.289 638.063C387.428 639.767 387.435 639.823 386.724 641.34C387.125 642.339 385.723 657.595 385.461 659.605L383.175 662.077C381.14 658.391 380.618 645.542 382.529 641.556Z" /><path fill="#c9a227" d="M385.461 659.605C387.798 662.843 387.757 662.762 386.49 666.693C384.67 665.443 384.212 663.911 382.582 662.92L383.175 662.077L385.461 659.605Z" /><path fill="#c9a227" d="M362.601 572.829C366.174 571.978 371.623 571.756 371.373 567.691L370.593 567.373L370.664 569.476C368.869 570.078 368.334 569.99 366.404 570.024C373.007 564.528 370.748 564.402 372.227 556.614L373.093 556.026C373.844 557.599 374.64 559.151 375.479 560.679C375.004 563.432 374.517 562.971 372.43 565.542L373.118 567.707L373.642 567.882L374.386 566.721L374.37 567.103C374.391 565.192 374.213 564.144 375.156 562.496L376.387 562.328L376.752 563.292C375.777 566.119 375.941 567.121 377.814 569.24L378.661 569.022C378.464 567.301 378.31 565.737 378.198 564.009L378.661 563.694C383.014 568.659 380.21 573.991 380.85 578.161C383.23 577.456 384.249 577.197 386.726 577.152C392.329 577.048 389.865 579.758 390.821 582.271L391.274 582.645L392.457 582.031L393.81 582.982L395.052 581.917C396.434 580.679 396.774 580.358 398.414 579.509C401.407 578.725 402.04 578.52 405.127 578.6L403.978 579.599C397.686 585.193 409.096 591.648 406.496 598.647C401.863 601.12 398.544 598.138 394.692 607.083C387.436 617.836 387.762 625.532 387.289 638.063C383.776 639.324 384.983 638.53 382.529 641.556L379.909 639.484C380.113 634.436 381.342 622.747 382.718 618.085C379.988 614.613 380.491 614.143 381.271 609.94C380.907 606.042 382.096 604.566 383.674 600.839L383.855 600.996L384.301 599.585L383.429 598.918L381.476 599.48C380.168 600.679 380.903 600.373 379.279 600.593C379.574 601.716 380.044 603.3 380.235 604.408C378.314 608.865 378.66 608.455 373.69 608.148L373.599 606.836L372.683 603.934C368.731 605.813 369.864 609.687 367.216 611.224L366.413 609.817C364.474 611.436 365.411 612.659 364.691 615.965L364.464 616.617C362.91 614.866 363.249 614.176 363.166 611.552L362.064 611.728C361.616 610.475 363.24 602.193 361.313 599.749C359.499 597.448 358.84 594.903 356.372 592.891C356.397 596.746 359.235 597.92 358.896 603.065L358.12 603.684C357.044 602.863 356.654 599.378 355.466 597.138L354.825 597.196C355.519 601.028 357.258 602.75 358.25 606.819C356.962 606.65 354.529 603.887 353.124 602.724C348.867 599.201 344.917 597.243 339.975 595.045C342.247 594.108 341.472 594.729 342.879 592.668C343.065 587.279 345.721 584.064 345.104 581.266C343.372 579.497 338.225 578.347 335.143 576.878L334.554 576.594C338.072 576.497 345.249 577.229 347.742 579.866C351.388 579.953 357.836 580.53 360.451 578.08C360.849 575.64 361.398 574.908 362.601 572.829Z" /><path fill="#c9a227" d="M334.554 576.594C338.072 576.497 345.249 577.229 347.742 579.866C350.549 581.281 353.895 582.402 354.453 585.803L353.833 586.977L351.245 583.004L350.739 583.145C349.731 589.625 347.182 592.046 354.825 597.196C355.519 601.028 357.258 602.75 358.25 606.819C356.962 606.65 354.529 603.887 353.124 602.724C348.867 599.201 344.917 597.243 339.975 595.045C342.247 594.108 341.472 594.729 342.879 592.668C343.065 587.279 345.721 584.064 345.104 581.266C343.372 579.497 338.225 578.347 335.143 576.878L334.554 576.594Z" /><path fill="#c9a227" d="M372.683 603.934C372.513 600.33 368.313 597.623 369.189 593.741C369.896 593.699 376.875 595.502 378.047 595.716C379.933 594.672 379.799 594.146 380.985 592.09C384.388 594.714 380.167 595.306 381.476 599.48C380.168 600.679 380.903 600.373 379.279 600.593C379.574 601.716 380.044 603.3 380.235 604.408C378.314 608.865 378.66 608.455 373.69 608.148L373.599 606.836L372.683 603.934Z" /><path fill="#c9a227" d="M373.599 606.836C374.828 606.965 374.74 606.951 375.829 606.351L375.866 603.617C377.84 603.088 378.033 603.59 380.235 604.408C378.314 608.865 378.66 608.455 373.69 608.148L373.599 606.836Z" /><path fill="#c9a227" d="M381.271 609.94C382.995 611.785 382.446 611.236 385.568 611.532C384.452 612.201 384.157 612.09 383.836 613.029L384.909 614.8L383.952 615.524C384.667 616.216 385.228 616.917 386.151 617.216L386.208 618.319L384.01 620.118C384.381 622.118 385.322 622.481 385.302 622.604C384.499 627.605 383.628 633.621 382.583 638.553C382.509 638.906 380.449 639.334 379.909 639.484C380.113 634.436 381.342 622.747 382.718 618.085C379.988 614.613 380.491 614.143 381.271 609.94Z" /><path fill="#c9a227" d="M380.85 578.161C383.23 577.456 384.249 577.197 386.726 577.152C392.329 577.048 389.865 579.758 390.821 582.271L391.274 582.645C390.969 584.012 391.323 583.481 390.183 584.29C386.308 583.257 385.412 583.028 382.017 580.979C382.13 580.436 382.227 580.009 382.372 579.468L382.504 578.986L380.85 578.161Z" /><path fill="#c9a227" d="M395.052 581.917C396.434 580.679 396.774 580.358 398.414 579.509C399.212 581.571 399.761 582.408 399.408 584.579C397.789 584.963 398.402 584.925 396.537 583.906C396.192 583.201 395.812 582.273 395.052 581.917Z" /><path fill="#c9a227" d="M262.495 513.21C264.694 519.568 266.786 526.583 270.628 532.105L271.29 532.383C272.94 534.623 276.97 539.827 278.224 541.978L282.335 546.096C290.8 558.661 296.859 559.528 309.494 566.93C318.657 572.298 324.38 573.947 334.554 576.594L335.143 576.878C338.225 578.347 343.372 579.497 345.104 581.266C345.721 584.064 343.065 587.279 342.879 592.668C341.472 594.729 342.247 594.108 339.975 595.045C336.36 593.785 306.555 584.75 305.1 584.659L304.724 584.507C282.408 575.293 260.617 560.487 250.986 537.587C256.351 540.666 255.899 545.553 259.034 546.891C259.081 539.864 253.429 529.045 256.435 522.683C256.686 522.14 256.942 521.6 257.203 521.062L257.573 520.266C258.266 520.218 258.822 520.479 259.523 520.691L261.744 519.494L262.566 519.309C263.383 516.899 262.684 516.655 261.624 513.63L262.495 513.21Z" /><path fill="#c9a227" d="M262.495 513.21C264.694 519.568 266.786 526.583 270.628 532.105L271.29 532.383C272.94 534.623 276.97 539.827 278.224 541.978C275.148 541.025 266.436 533.038 264.178 530.507C261.424 527.42 263.411 523.751 262.566 519.309C263.383 516.899 262.684 516.655 261.624 513.63L262.495 513.21Z" /><path fill="#c9a227" d="M275.196 310.576C275.827 311.641 276.801 313.426 277.529 314.333C276.581 320.428 273.749 331.912 273.625 337.514C272.636 382.115 271.703 426.818 274.038 471.397C274.214 474.708 274.414 477.93 274.414 481.249L273.083 476.905C273.025 472.673 272.934 469.736 272.466 465.481L272.535 464.761C271.639 461.896 272.209 462.151 270.178 460.67C268.233 460.751 267.717 461.298 266.055 462.387L265.199 460.037C267.391 455.663 264.551 417.147 266.075 409.324C266.371 407.806 266.583 405.595 266.742 404.015C266.931 398.111 269.263 337.167 269.348 336.985C272.359 330.479 274.617 317.767 275.196 310.576Z" /><path fill="#c9a227" d="M266.742 404.015L268.165 406.601L269.019 406.395L270.311 403.953C272.193 407.509 271.345 411.305 270.967 415.23C270.446 420.636 269.076 419.296 271.768 423.281C272.136 423.827 270.096 438.104 270.507 439.951C271.144 448.303 272.351 456.273 272.535 464.761C271.639 461.896 272.209 462.151 270.178 460.67C268.233 460.751 267.717 461.298 266.055 462.387L265.199 460.037C267.391 455.663 264.551 417.147 266.075 409.324C266.371 407.806 266.583 405.595 266.742 404.015Z" /><path fill="#c9a227" d="M271.29 532.383C270.168 528.477 266.496 523.584 268.177 520.03C274.368 516.422 277.373 520.05 279.762 525.397C282.62 531.792 301.167 550.203 299.014 555.972C294.531 558.833 286.534 548.268 282.335 546.096L278.224 541.978C276.97 539.827 272.94 534.623 271.29 532.383Z" /><path fill="#c9a227" d="M412.19 561.26C422.204 559.449 429.899 556.112 439.149 552.02L440.785 553.053C441.398 555.79 439.09 557.04 437.077 558.837L436.052 560.173C430.101 563.076 428.285 566.484 423.034 570.071C422.257 570.602 420.377 568.969 418.899 571.701C415.333 572.036 416.558 572.352 413.355 570.913C413.04 571.403 412.853 571.708 412.578 572.232L412.366 572.648C408.954 572.713 407.344 573.297 405.789 570.073C405.992 567.612 406.195 567.195 407.44 565.122L407.763 564.59C406.932 562.937 406.789 562.696 406.813 560.858L412.19 561.26Z" /><path fill="#c9a227" d="M412.19 561.26C422.204 559.449 429.899 556.112 439.149 552.02L440.785 553.053C441.398 555.79 439.09 557.04 437.077 558.837L436.052 560.173C426.258 556.753 422.97 568.316 418.157 569.37L416.302 566.12L414.124 565.706C412.949 563.923 412.493 563.411 412.19 561.26Z" /><path fill="#c9a227" d="M429.034 572.065C431.581 570.432 442.852 565.333 445.751 565.83L447.048 567.791L447.94 567.633C451.647 567.265 454.544 566.34 458.096 566.802C457.543 568.314 453.282 569.804 451.685 570.109L451.212 570.483C448.478 572.608 447.147 572.481 443.622 572.231C448.403 575.858 447.636 571.464 451.742 573.1C452.307 573.925 453.272 575.241 453.687 576.078C452.503 575.76 450.727 574.273 450.559 574.238C449.952 574.11 424.989 577.16 424.114 577.664C423.634 577.94 423.907 577.848 423.32 577.915C413.017 582.728 411.836 576.858 407.599 588.161C406.454 587.501 404.955 581.896 403.978 579.599L405.127 578.6C406.035 578.084 427.075 572.485 429.034 572.065Z" /><path fill="#c9a227" d="M429.034 572.065C431.581 570.432 442.852 565.333 445.751 565.83L447.048 567.791L447.94 567.633C451.647 567.265 454.544 566.34 458.096 566.802C457.543 568.314 453.282 569.804 451.685 570.109C446.011 571.737 439.97 572.116 434.284 574.054C433.74 574.239 431.737 572.804 431.29 572.418L429.034 572.065Z" /><path fill="#c9a227" d="M226.792 348.381C230.192 344.02 237.492 334.74 242.325 332.664C243.88 332.889 243.233 332.546 244.282 333.811C243.861 335.452 244.009 335.137 243.298 336.487C241.974 339.002 243.484 346.109 242.083 348.341C241.312 349.57 236.987 349.932 235.12 351.629L235.152 352.504L229.613 355.852C225.986 358.915 219.258 364.746 214.688 366.029L213.342 365.697C213.455 363.973 213.43 364.504 214.746 362.886C216.564 360.815 218.773 357.806 220.519 355.576C222.446 353.701 224.535 350.64 226.792 348.381Z" /><path fill="#c9a227" d="M220.519 355.576L221.39 357.964C224.341 359.008 226.276 356.567 229.613 355.852C225.986 358.915 219.258 364.746 214.688 366.029L213.342 365.697C213.455 363.973 213.43 364.504 214.746 362.886C216.564 360.815 218.773 357.806 220.519 355.576Z" /><path fill="#c9a227" d="M464.725 539.846C462.142 544.741 465.299 542.472 463.175 545.036L460.942 545.13C459.73 546.736 459.721 547.192 459.159 549.18C461.776 549.117 461.413 548.731 463.315 549.941C463.567 550.736 463.962 551.851 464.142 552.63C463.594 553.29 461.9 555.24 461.556 555.857C459.406 555.053 459.239 554.553 457.04 555.674C451.032 558.735 446.939 561.743 440.528 564.307C443.759 559.042 445.587 560.935 446.728 558.285L445.199 555.672C442.674 556.718 439.652 558.066 437.077 558.837C439.09 557.04 441.398 555.79 440.785 553.053L439.149 552.02C445.096 548.902 451.06 544.717 456.585 540.917L459.075 541.932C459.127 543.425 459.375 542.826 458.474 543.844L459.901 544.08C460.427 541.03 462.293 540.679 464.725 539.846Z" /><path fill="#c9a227" d="M456.585 540.917L459.075 541.932C459.127 543.425 459.375 542.826 458.474 543.844C457.683 545.903 457.507 546.884 455.592 548.071C452.84 552.476 451.01 553.549 445.782 554.438L445.199 555.672C442.674 556.718 439.652 558.066 437.077 558.837C439.09 557.04 441.398 555.79 440.785 553.053L439.149 552.02C445.096 548.902 451.06 544.717 456.585 540.917Z" /><path fill="#c9a227" d="M445.782 554.438C447.106 550.069 451.718 548.96 455.592 548.071C452.84 552.476 451.01 553.549 445.782 554.438Z" /><path fill="#c9a227" d="M353.543 555.412L354.26 557.469L353.433 559.613L352.647 560.361C352.583 565.635 352.293 565.818 350.594 570.655L352.379 571.877C351.402 573.631 351.969 573.047 350.11 573.962C345.944 573.923 340.135 569.781 339.257 565.899L337.643 564.609C334.318 565.063 327.653 561.796 326.195 558.579L326.774 557.263C334.067 559.56 338.605 560.97 346.288 561.682C349.965 559.636 350.853 558.621 353.543 555.412Z" /><path fill="#c9a227" d="M353.543 555.412L354.26 557.469L353.433 559.613L352.647 560.361C351.004 563.385 349.819 566.733 347.311 568.372C344.524 567.851 344.787 567.216 342.708 566.354L342.724 564.449L340.095 562.816L340.494 562.826L340.534 562.328L341.262 562.138L340.831 562.783L341.98 561.973C343.434 561.929 344.842 561.801 346.288 561.682C349.965 559.636 350.853 558.621 353.543 555.412Z" /><path fill="#c9a227" d="M266.055 462.387C267.717 461.298 268.233 460.751 270.178 460.67C272.209 462.151 271.639 461.896 272.535 464.761L272.466 465.481C272.934 469.736 273.025 472.673 273.083 476.905C272.703 479.537 273.126 481.057 271.563 482.663L270.231 482.435C266.979 478.882 264.588 467.801 266.688 463.359L266.055 462.387Z" /><path fill="#c9a227" d="M266.055 462.387C267.717 461.298 268.233 460.751 270.178 460.67C272.209 462.151 271.639 461.896 272.535 464.761L272.466 465.481C272.351 467.86 272.477 469.249 271.206 471.31L270.22 471.454C268.013 468.339 268.477 467.003 266.929 463.84L266.688 463.359L266.055 462.387Z" /><path fill="#c9a227" d="M283.693 275.353L285.157 273.191C284.773 280.219 279.195 306.791 277.529 314.333C276.801 313.426 275.827 311.641 275.196 310.576C275.496 308.818 275.945 306.354 275.837 304.596C275.583 300.438 279.649 291.647 278.079 288.248C281.998 283.775 282.457 281.195 283.693 275.353Z" /><path fill="#c9a227" d="M437.077 558.837C439.652 558.066 442.674 556.718 445.199 555.672L446.728 558.285C445.587 560.935 443.759 559.042 440.528 564.307C435.622 565.948 422.03 572.144 418.899 571.701C420.377 568.969 422.257 570.602 423.034 570.071C428.285 566.484 430.101 563.076 436.052 560.173L437.077 558.837Z" /><path fill="#c9a227" d="M257.649 518.198L258.108 517.195C257.817 516.367 257.982 496.221 258.462 495.568L257.945 495.323L258.11 495.032C258.96 496.91 261.61 509.806 262.495 513.21L261.624 513.63C262.684 516.655 263.383 516.899 262.566 519.309L261.744 519.494L261.05 518.399C259.665 518.617 259.012 518.515 257.649 518.198Z" /><path fill="#c9a227" d="M257.203 521.062L256.133 520.882C253.411 518.79 246.965 512.876 249.226 509.095C251.75 510.06 255.618 515.722 257.649 518.198C259.012 518.515 259.665 518.617 261.05 518.399L261.744 519.494L259.523 520.691C258.822 520.479 258.266 520.218 257.573 520.266L257.203 521.062Z" /><path fill="#c9a227" d="M283.155 270.431C283.967 271.309 284.89 272.076 285.157 273.191L283.693 275.353C281.181 278.13 278.782 281.047 276.375 283.918C278.439 278.414 280.144 275.534 283.155 270.431Z" /><path fill="#c9a227" d="M272.517 282.573L273.948 283.221C274.878 287.085 254.964 314.005 256.648 322.89C256.738 323.366 255.776 338.295 255.907 338.017L254.531 338.473C252.847 337.467 253.39 338.168 252.815 336.326C241.096 323.999 265.088 293.849 272.517 282.573Z" /><path fill="#c9a227" d="M391.153 555.793C391.639 555.821 392.634 555.925 393.049 556.152C400.63 560.297 401.711 563.91 398.456 571.705C397.147 572.704 396.947 573.026 395.386 573.139C391.751 571.377 385.345 568.486 384.669 564.077C385.313 560.041 388.032 558.445 391.153 555.793Z" /><path fill="#c9a227" d="M259.843 354.65C261.105 354.392 260.443 354.388 261.849 355.018C263.435 358.999 263.165 361.28 261.021 364.638C259.444 363.128 258.38 362.403 257.969 360.227C258.497 357.51 259.411 356.93 259.843 354.65Z" /><path fill="#c9a227" d="M246.145 461.053C248.315 466.373 248.549 468.637 247.182 474.131C246.214 473.681 246.317 473.606 245.536 472.773C244.824 468.65 245.035 465.07 246.145 461.053Z" /><path fill="#c9a227" d="M353.543 555.412C358.984 542.901 357.341 541.511 360.137 528.727C362.442 518.189 365.197 507.707 364.753 496.686C363.47 464.858 335.057 441.039 336.491 409.646C338.391 376.463 368.818 352.194 377.13 320.895C383.295 297.677 379.071 272.201 381.808 248.61C381.98 247.124 382.952 245.435 384.293 244.717L385.864 245.277C386.598 246.261 387.929 247.778 388.128 248.9C394.896 263.076 405.762 301.234 403.084 316.342C402.424 328.055 390.492 351.644 383.558 360.214L383.357 360.674C375.542 378.093 368.014 383.903 364.491 405.561C364.211 411.298 364.12 416.979 365.036 422.637C366.564 432.068 376.5 460.636 381.816 467.62L383.075 466.952L384.42 468.172L383.975 469.779C388.993 472.803 391.103 466.041 392.461 462.534C398.361 447.297 391.788 431.476 386.465 417.135L384.115 411.477C381.811 407.629 378.278 399.626 380.225 395.474L381.51 395.25L384.117 396.55C396.107 404.907 412.46 425.671 417.725 439.184C421.143 446.686 423.279 456.068 420.835 464.171L419.447 468.827C418.638 470.673 417.585 473.401 416.453 474.972C413.889 480.424 408.902 488.145 405.502 493.346L402.373 498.337L399.881 498.875C399.118 499.849 398.317 500.91 397.519 501.842C396.829 504.852 392.681 510.338 391.675 513.308C390.394 517.096 390.47 520.719 389.11 524.945C387.717 529.268 390.183 541.282 388.981 545.447C389.263 545.663 379.565 530.275 378.296 528.416L377.426 527.616C376.498 527.729 375.922 527.63 374.992 527.548C374.059 525.645 374.531 524.352 374.663 521.966L374.528 522.462C372.761 529.151 372.207 536.92 371.614 543.783C371.411 546.13 368.902 545.338 368.542 548.965C370.142 549.161 369.346 549.248 370.957 548.432C371.256 549.692 366.955 562.762 364.919 564.67C359.627 563.289 362.308 566.112 358.558 565.209C357.516 562.237 360.372 564.701 357.724 562.138C354.505 561.278 355.348 561.98 353.433 559.613L354.26 557.469L353.543 555.412Z" /><path fill="#c9a227" d="M411.924 468.028L412.061 468.573C412.49 470.33 412.682 470.881 412.498 472.723L413.222 473.434C415.877 468.885 415.592 461.768 418.138 458.581L419.229 458.418C419.568 460.838 419.004 465.183 419.447 468.827C418.638 470.673 417.585 473.401 416.453 474.972C413.889 480.424 408.902 488.145 405.502 493.346L402.373 498.337L399.881 498.875C399.118 499.849 398.317 500.91 397.519 501.842C396.829 504.852 392.681 510.338 391.675 513.308C390.394 517.096 390.47 520.719 389.11 524.945C387.717 529.268 390.183 541.282 388.981 545.447C389.263 545.663 379.565 530.275 378.296 528.416L377.426 527.616C376.498 527.729 375.922 527.63 374.992 527.548C374.059 525.645 374.531 524.352 374.663 521.966C374.901 519.321 375.701 514.199 376.565 511.802C376.381 509.628 376.68 507.282 376.878 505.094C380.103 496.018 375.736 488.074 377.644 484.551C379.56 485.196 383.702 490.749 385.466 492.728C387.222 492.502 385.179 491.75 387.935 489.605L390.613 490.058C392.776 486.122 395.52 483.125 396.777 478.383C397.302 476.402 398.341 477.821 399.727 477.455L399.126 475.157C400.627 471.937 406.339 471.704 409.412 471.174C410.699 470.952 411.288 469.163 411.924 468.028Z" /><path fill="#c9a227" d="M376.878 505.094C380.103 496.018 375.736 488.074 377.644 484.551C379.56 485.196 383.702 490.749 385.466 492.728C387.222 492.502 385.179 491.75 387.935 489.605L390.613 490.058C389.287 498.357 382.643 502.419 380.724 511.586C380.087 515.718 379.094 524.757 378.296 528.416L377.426 527.616C376.498 527.729 375.922 527.63 374.992 527.548C374.059 525.645 374.531 524.352 374.663 521.966C374.901 519.321 375.701 514.199 376.565 511.802C376.381 509.628 376.68 507.282 376.878 505.094Z" /><path fill="#c9a227" d="M404.139 486.219L405.027 484.968L405.899 485.08L405.502 493.346L402.373 498.337L399.881 498.875C399.118 499.849 398.317 500.91 397.519 501.842C395.379 498.901 396.624 496.29 397.35 492.871C399.665 490.415 401.653 488.507 404.139 486.219Z" /><path fill="#c9a227" d="M404.139 486.219L405.027 484.968L405.899 485.08L405.502 493.346L402.373 498.337L399.881 498.875C400.824 495.772 400.475 493.384 402.055 490.777C402.949 489.303 403.499 487.818 404.139 486.219Z" /><path fill="#c9a227" d="M405.899 485.08C410.245 484.018 411.93 477.26 416.453 474.972C413.889 480.424 408.902 488.145 405.502 493.346L405.899 485.08Z" /><path fill="#c9a227" d="M384.797 343.981C386.948 341.468 390.47 335.715 392.703 334.527C395.999 339.861 390.501 345.206 388.03 350.267C386.507 352.714 383.242 357.572 383.558 360.214L383.357 360.674C375.542 378.093 368.014 383.903 364.491 405.561C362.676 410.434 363.865 417.747 361.572 421.297L359.323 421.007C357.764 418.588 356.717 412.42 357.048 409.644L356.896 408.724C351.53 396.132 366.806 373.373 372.948 361.925C376.44 355.416 381.588 351.858 384.797 343.981Z" /><path fill="#c9a227" d="M356.896 408.724C357.325 405.92 357.871 401.206 359.839 399.276C361.104 399.981 361.436 400.155 362.804 400.614L363.181 400.286C363.696 402.527 362.607 410.502 361.608 412.841L360.395 413.583C357.828 412.398 358.678 412.662 357.048 409.644L356.896 408.724Z" /><path fill="#c9a227" d="M392.703 334.527C395.999 339.861 390.501 345.206 388.03 350.267C387.656 350.033 387.119 349.439 386.777 349.098C386.656 345.322 390.846 338.082 392.703 334.527Z" /><path fill="#c9a227" d="M354.26 557.469C354.004 557.614 363.212 547.764 363.053 548.24C365.96 539.551 368.788 500.213 373.869 496.118L374.939 496.896C376.58 500.087 376.545 501.469 376.878 505.094C376.68 507.282 376.381 509.628 376.565 511.802C375.701 514.199 374.901 519.321 374.663 521.966L374.528 522.462C372.761 529.151 372.207 536.92 371.614 543.783C371.411 546.13 368.902 545.338 368.542 548.965C370.142 549.161 369.346 549.248 370.957 548.432C371.256 549.692 366.955 562.762 364.919 564.67C359.627 563.289 362.308 566.112 358.558 565.209C357.516 562.237 360.372 564.701 357.724 562.138C354.505 561.278 355.348 561.98 353.433 559.613L354.26 557.469Z" /><path fill="#c9a227" d="M384.797 343.981C384.768 339.119 394.197 325.132 396.179 319.097C397.392 315.401 397.325 312.303 398.396 309.568L399.916 310.117L399.816 310.235L400.742 307.152L401.237 307.251C402.276 309.578 402.687 313.683 403.084 316.342C402.424 328.055 390.492 351.644 383.558 360.214C383.242 357.572 386.507 352.714 388.03 350.267C390.501 345.206 395.999 339.861 392.703 334.527C390.47 335.715 386.948 341.468 384.797 343.981Z" /><path fill="#c9a227" d="M385.864 245.277C386.598 246.261 387.929 247.778 388.128 248.9C390.331 267.125 399.565 292.259 394.663 311.231C394.282 312.706 393.402 315.482 392.165 316.259C391.503 314.271 391.247 294.693 391.403 292.48C392.017 283.801 384.824 249.675 385.864 245.277Z" /><path fill="#c9a227" d="M409.836 439.055C408.363 430.993 397.21 412.736 391.39 406.432C389.714 404.616 384.906 398.54 384.117 396.55C396.107 404.907 412.46 425.671 417.725 439.184C413.949 436.951 413.047 434.113 410.671 433.188C409.469 434.811 409.815 436.89 409.836 439.055Z" /><path fill="#c9a227" d="M381.51 395.25L384.117 396.55C384.906 398.54 389.714 404.616 391.39 406.432C397.21 412.736 408.363 430.993 409.836 439.055C411.581 441.503 411.925 448.962 412.248 452.236C407.731 446.392 405.396 435.758 401.107 427.54L401.041 427.123C399.241 422.548 394.471 414.337 391.808 410.098C389.212 405.927 383.026 399.348 381.51 395.25Z" /><path fill="#c9a227" d="M411.924 468.028C413.128 464.002 413.642 449.882 418.325 448.688C421.601 451.719 421.042 459.975 420.835 464.171L419.447 468.827C419.004 465.183 419.568 460.838 419.229 458.418L418.138 458.581C415.592 461.768 415.877 468.885 413.222 473.434L412.498 472.723C412.682 470.881 412.49 470.33 412.061 468.573L411.924 468.028Z" /><path fill="#c9a227" d="M384.115 411.477C381.811 407.629 378.278 399.626 380.225 395.474L381.51 395.25C383.026 399.348 389.212 405.927 391.808 410.098C392.532 413.104 393.139 413.984 391.633 416.778C390.32 414.257 388.287 409.664 385.665 408.595L384.631 409.24L384.115 411.477Z" /><path fill="#c9a227" d="M384.115 411.477L384.631 409.24L385.665 408.595C388.287 409.664 390.32 414.257 391.633 416.778L391.936 417.82C392.326 419.906 392.9 421.48 392.074 423.339C390.414 422.916 387.767 418.819 386.465 417.135L384.115 411.477Z" /><path fill="#c9a227" d="M396.313 426.204L398.747 425.171L401.041 427.123L401.107 427.54C400.042 428.366 399.437 428.814 398.286 429.513L396.722 428.978C396.947 429.267 397.173 429.556 397.398 429.845L396.567 429.549L396.313 426.204Z" /><path fill="#c9a227" d="M346.743 429.467C349.242 430.92 348.322 430.816 350.716 430.706C352.092 427.897 348.202 425.897 350.52 424.324C354.574 426.131 354.035 429.288 355.247 433.356L355.719 433.232L356.898 431.677C361.216 432.245 362.888 442.569 364.402 446.543C366.628 452.38 369.34 458.021 372.508 463.406C373.936 465.786 375.602 468.447 377.772 470.188C380.51 472.384 385.435 471.559 384.247 476.046C383.791 477.766 382.976 478.788 381.593 479.734C376.573 480.253 371.3 468.463 369.117 464.255C369.508 466.866 368.471 470.843 368.089 473.655C365.704 473.172 366.234 466.112 364.409 463.916C364.834 468.38 366.345 472.729 363.948 476.059L362.736 476.1C361.554 474.336 360.215 471.599 359.886 469.521C358.577 461.248 339.907 432.646 341.336 426.568L342.325 426.21C344.722 427.171 345.061 427.649 346.743 429.467Z" /><path fill="#c9a227" d="M355.719 433.232L356.898 431.677C361.216 432.245 362.888 442.569 364.402 446.543C366.628 452.38 369.34 458.021 372.508 463.406C373.936 465.786 375.602 468.447 377.772 470.188C380.51 472.384 385.435 471.559 384.247 476.046C383.791 477.766 382.976 478.788 381.593 479.734C376.573 480.253 371.3 468.463 369.117 464.255C367.379 460.581 365.622 456.916 363.845 453.261L362.026 449.784C359.867 444.378 357.512 438.741 355.719 433.232Z" /><path fill="#c9a227" d="M346.743 429.467C349.242 430.92 348.322 430.816 350.716 430.706C352.092 427.897 348.202 425.897 350.52 424.324C354.574 426.131 354.035 429.288 355.247 433.356L355.719 433.232C357.512 438.741 359.867 444.378 362.026 449.784L363.845 453.261C360.34 453.061 360.565 452.927 357.897 450.634C355.727 448.884 348.753 433.465 346.743 429.467Z" /><path fill="#c9a227" d="M355.247 433.356L355.719 433.232C357.512 438.741 359.867 444.378 362.026 449.784C357.129 445.193 350.441 440.267 355.247 433.356Z" /><path fill="#c9a227" d="M357.897 450.634C360.565 452.927 360.34 453.061 363.845 453.261C365.622 456.916 367.379 460.581 369.117 464.255C369.508 466.866 368.471 470.843 368.089 473.655C365.704 473.172 366.234 466.112 364.409 463.916C362.811 461.717 360.952 457.658 357.537 453.188L357.897 450.634Z" /><path fill="#c9a227" d="M383.738 264.463L385.063 265.422C386.715 271.23 390.084 302.737 388.45 308.049C386.547 309.016 386.768 309.333 385.282 308.892C382.943 304.432 383.707 271.748 383.738 264.463Z" /><path fill="#c9a227" d="M402.579 446.674C408.113 450.654 402.504 463.895 399.712 468.411C398.022 467.766 397.967 467.746 396.991 466.284C395.893 460.426 399.953 451.874 402.579 446.674Z" /><path fill="#c9a227" d="M347.298 394.147C348.253 394.833 347.967 394.674 348.642 395.75C348.365 399.864 347.424 413.118 346.261 416.513L345.153 416.575C344.027 412.956 342.606 413.056 342.511 407.718C342.412 402.123 343.543 398.327 347.298 394.147Z" /><path fill="#c9a227" d="M368.085 352.248L368.418 353.3C367.909 357.048 363.231 365.663 358.527 365.048L357.729 363.855C359.485 360.557 364.96 354.114 368.085 352.248Z" /><path fill="#c9a227" d="M483.862 267.052L485.866 265.23L487.945 266.717C492.843 270.644 500.44 279.631 504.941 284.634C508.896 288.946 514.922 295.66 518.497 300.403C526.179 307.09 553.664 345.711 553.398 355.628C552.189 355.858 550.697 355.892 549.667 355.244C542.332 350.64 536.137 346.215 528.381 342.226L525.413 340.696C523.656 342.246 523.111 342.686 522.862 345.183C521.385 359.328 522.575 373.644 522.827 387.827C523.119 404.264 523.471 421.061 523.497 437.476C523.536 463.238 527.716 505.166 514.291 527.738C511.055 534.881 502.279 548.329 495.591 552.182C492.947 554.868 482.267 563.808 479.111 564.715C478.101 564.736 477.561 564.695 476.572 564.613C477.865 563.108 478.293 562.406 479.31 560.694C476.897 562.147 468 566.356 467.287 568.535C462.602 570.455 459.595 573.704 453.687 576.078C453.272 575.241 452.307 573.925 451.742 573.1C447.636 571.464 448.403 575.858 443.622 572.231C447.147 572.481 448.478 572.608 451.212 570.483L451.685 570.109C453.282 569.804 457.543 568.314 458.096 566.802C454.544 566.34 451.647 567.265 447.94 567.633C450.959 565.284 461.44 559.207 462.556 556.89L461.556 555.857C461.9 555.24 463.594 553.29 464.142 552.63C463.962 551.851 463.567 550.736 463.315 549.941C461.413 548.731 461.776 549.117 459.159 549.18C459.721 547.192 459.73 546.736 460.942 545.13L463.175 545.036C465.299 542.472 462.142 544.741 464.725 539.846C462.293 540.679 460.427 541.03 459.901 544.08L458.474 543.844C459.375 542.826 459.127 543.425 459.075 541.932L456.585 540.917L460.72 537.68C462.653 535.911 464.565 534.119 466.455 532.305C477.55 521.594 486.995 505.957 491.095 491.053C492.818 484.791 493.161 468.396 493.695 461.352C495.555 441.388 494.486 421.181 495.357 401.255C497.118 360.979 494.999 321.481 486.209 282.05C485.106 277.106 483.724 272.525 483.851 267.393L483.862 267.052Z" /><path fill="#c9a227" d="M518.087 448.187C517.609 447.212 517.298 446.648 516.997 445.582C518.065 442.907 517.743 442.462 519.711 440.981C521.573 442.109 521.679 443.614 521.721 445.769C522.087 464.31 522.303 484.109 519.975 502.451L519.27 503.115C518.917 505.059 518.546 507 518.159 508.938C517.423 512.481 518.061 514.738 517.534 517.657C517.027 520.46 513.88 524.486 514.291 527.738C511.055 534.881 502.279 548.329 495.591 552.182C492.947 554.868 482.267 563.808 479.111 564.715C478.101 564.736 477.561 564.695 476.572 564.613C477.865 563.108 478.293 562.406 479.31 560.694C476.897 562.147 468 566.356 467.287 568.535C462.602 570.455 459.595 573.704 453.687 576.078C453.272 575.241 452.307 573.925 451.742 573.1C447.636 571.464 448.403 575.858 443.622 572.231C447.147 572.481 448.478 572.608 451.212 570.483L451.685 570.109C453.282 569.804 457.543 568.314 458.096 566.802C454.544 566.34 451.647 567.265 447.94 567.633C450.959 565.284 461.44 559.207 462.556 556.89L461.556 555.857C461.9 555.24 463.594 553.29 464.142 552.63C465.072 551.533 466.608 550.115 467.67 549.071C468.875 549.488 468.899 549.467 470.181 549.555C469.523 548.215 469.099 547.708 469.31 546.234L470.611 545.607C472.2 546.055 472.821 546.394 474.38 546.064C480.091 540.497 484.924 534.873 490.013 528.767C491.153 527.4 491.568 525.594 492.418 523.891C494.394 523.744 494.963 523.568 496.603 522.453L497.016 523.525C505.446 517.725 507.756 508.226 509.911 498.817C510.313 497.062 510.77 492.921 509.996 491.459C511.684 482.972 512.069 472.58 513.011 463.823C513.416 460.048 513.173 455.052 513.852 451.46L515.682 451.304C514.557 450.199 514.312 449.825 513.412 448.516L513.733 447.164C515.482 446.786 516.41 447.444 518.087 448.187Z" /><path fill="#c9a227" d="M518.087 448.187C517.609 447.212 517.298 446.648 516.997 445.582C518.065 442.907 517.743 442.462 519.711 440.981C521.573 442.109 521.679 443.614 521.721 445.769C522.087 464.31 522.303 484.109 519.975 502.451L519.27 503.115C518.694 497.89 520.851 490.19 519.592 483.666C517.306 486.422 518.269 503.611 517.277 508.357C516.541 511.875 516.058 515.596 514.811 519.117L514.016 519.338C513.155 515.892 516.299 501.857 514.32 495.955C513.075 492.241 514.553 487.818 515.716 484.043L514.325 483.081C514.338 480.555 516.951 472.499 517.802 469.629L516.175 469.027C515.711 467.388 515.686 466.284 515.557 464.623C522.529 461.325 513.527 456.633 518.172 452.482C518.561 451.289 518.224 449.498 518.087 448.187Z" /><path fill="#c9a227" d="M479.31 560.694C483.759 558.345 490.677 550.294 495.591 552.182C492.947 554.868 482.267 563.808 479.111 564.715C478.101 564.736 477.561 564.695 476.572 564.613C477.865 563.108 478.293 562.406 479.31 560.694Z" /><path fill="#c9a227" d="M485.866 265.23L487.945 266.717C492.843 270.644 500.44 279.631 504.941 284.634C508.896 288.946 514.922 295.66 518.497 300.403C526.179 307.09 553.664 345.711 553.398 355.628C552.33 353.867 551.355 353.337 550.608 351.206C542.425 343.116 535.081 331.611 526.401 323.581C522.694 320.15 517.895 320.262 515.082 317.557C513.881 316.401 511.119 310.709 509.63 308.402C509.536 301.711 486.575 270.924 485.866 265.23Z" /><path fill="#c9a227" d="M509.504 298.511C516.83 297.567 511.102 295.519 518.497 300.403C526.179 307.09 553.664 345.711 553.398 355.628C552.33 353.867 551.355 353.337 550.608 351.206C550.5 342.011 512.753 308.691 509.504 298.511Z" /><path fill="#c9a227" d="M504.159 291.167C503.79 288.423 503.397 286.863 504.941 284.634C508.896 288.946 514.922 295.66 518.497 300.403C511.102 295.519 516.83 297.567 509.504 298.511C508.298 296.33 505.752 293.235 504.159 291.167Z" /><path fill="#c9a227" d="M487.945 266.717C492.843 270.644 500.44 279.631 504.941 284.634C503.397 286.863 503.79 288.423 504.159 291.167C499.907 284.992 491.292 272.876 487.945 266.717Z" /><path fill="#c9a227" d="M496.603 522.453C494.796 521.276 495.628 521.532 493.443 521.51L492.828 520.844C497.389 516.816 503.522 500.918 504.194 494.443C504.474 491.746 505.465 484.344 506.3 482.21C506.925 488.876 508.961 485.621 509.996 491.459C510.77 492.921 510.313 497.062 509.911 498.817C507.756 508.226 505.446 517.725 497.016 523.525L496.603 522.453Z" /><path fill="#c9a227" d="M483.862 267.052L485.866 265.23C486.575 270.924 509.536 301.711 509.63 308.402C509.596 312.392 512.566 316.255 508.615 319.212C507.573 308.293 489.501 277.905 483.862 267.052Z" /><path fill="#c9a227" d="M525.413 340.696C523.521 338.66 523.622 330.482 525 328.458C529.271 328.181 539.857 335.678 536.889 340.975C533.766 342.84 532.01 342.386 528.381 342.226L525.413 340.696Z" /><path fill="#c9a227" d="M526.91 333.693C530.016 335.084 532.193 338.418 531.727 341.861C529.411 340.536 526.84 338.326 525.921 335.753L526.91 333.693Z" /><path fill="#c9a227" d="M460.72 537.68L464.891 535.857L465.641 536.352C465.327 537.515 465.022 538.679 464.725 539.846C462.293 540.679 460.427 541.03 459.901 544.08L458.474 543.844C459.375 542.826 459.127 543.425 459.075 541.932L456.585 540.917L460.72 537.68Z" /><path fill="#c9a227" d="M494.096 484.559C494.381 472.576 498.282 460.34 499.021 448.288C500.108 430.575 497.151 413.619 498.031 395.924C498.909 378.273 498.78 360.141 496.897 342.572C496.448 338.327 494.362 327.077 496.62 323.653L497.522 323.596C497.163 322.002 502.397 338.043 500.442 335.413C503.075 338.955 502.358 341.447 502.712 345.677C505.805 382.551 506.242 420.696 501.721 457.436C500.894 464.135 500.756 470.026 500.641 476.648L499.324 475.057C495.938 476.207 495.622 481.469 494.096 484.559Z" /><path fill="#c9a227" d="M517.087 374.845C518.828 374.781 518.17 374.675 519.824 375.816C521.421 378.923 522.152 437.14 519.901 439.927C517.929 439.038 518.101 438.587 516.78 436.575C516.809 435.158 516.561 434.634 515.952 433.361C515.66 431.742 516.383 430.472 516.478 430.861C515.308 426.076 515.092 421.326 515.71 416.438C516.2 412.568 515.35 411.622 517.999 408.671C519.883 398.946 508.452 385.52 517.087 374.845Z" /><path fill="#c9a227" d="M494.096 484.559C495.622 481.469 495.938 476.207 499.324 475.057L500.641 476.648C501.904 483.318 495.668 509.02 489.28 512.284L487.967 512.125L487.506 511.256C489.596 504.773 491.382 489.963 494.096 484.559Z" /><path fill="#c9a227" d="M469.409 531.751C473.244 532.898 473.382 534.319 474.692 537.907L475.807 538.193L476.57 539.711C475.889 540.527 475.413 540.759 474.535 541.322C470.577 539.005 469.066 536.197 469.409 531.751Z" /><path fill="#c9a227" d="M477.325 529.188L479.909 531.129C478.408 531.92 478.079 532.428 477.269 533.904C475.901 533.952 475.929 533.993 474.544 533.559L474.092 532.302C475.261 530.091 475.028 530.681 477.325 529.188Z" /><path fill="#c9a227" d="M358.975 628.457C359.451 629.386 360.679 632.197 361.354 632.555C365.724 634.304 366.277 638.348 367.113 642.727L366.28 643.891C368.67 654.176 366.034 656.657 367.693 664.854C367.224 666.136 367.048 666.461 366.95 667.868C366.349 668.892 365.923 669.147 366.103 669.996C366.886 673.685 365.284 679.022 364.327 682.806C364.289 695.388 365.062 707.827 364.893 720.332C364.968 731.843 365.478 746.169 365.068 757.445C364.292 760.582 364.949 770.747 364.464 775.786C364.347 770.62 364.361 766.246 364.566 761.084L363.814 760.958C361.947 769.065 364.687 788.915 362.354 794.444C361.078 769.234 361.626 740.334 361.81 714.895C361.459 687.564 360.478 655.669 358.975 628.457Z" /><path fill="#c9a227" d="M362.883 651.664C363.231 648.596 362.055 645.738 364.499 643.577L366.28 643.891C368.67 654.176 366.034 656.657 367.693 664.854C367.224 666.136 367.048 666.461 366.95 667.868C366.349 668.892 365.923 669.147 366.103 669.996C366.886 673.685 365.284 679.022 364.327 682.806C363.468 678.602 363.067 657.202 362.883 651.664Z" /><path fill="#c9a227" d="M361.354 632.555C365.724 634.304 366.277 638.348 367.113 642.727L366.28 643.891L364.499 643.577C362.055 645.738 363.231 648.596 362.883 651.664C362.13 645.354 362.847 638.788 361.354 632.555Z" /></svg>